G75*
G70*
%OFA0B0*%
%FSLAX24Y24*%
%IPPOS*%
%LPD*%
%AMOC8*
5,1,8,0,0,1.08239X$1,22.5*
%
%ADD10C,0.0560*%
%ADD11C,0.0611*%
%ADD12OC8,0.0580*%
%ADD13C,0.0580*%
%ADD14OC8,0.0560*%
%ADD15C,0.0640*%
%ADD16C,0.0456*%
D10*
X004179Y004244D02*
X004659Y004244D01*
X004659Y005244D02*
X004179Y005244D01*
X004179Y006244D02*
X004659Y006244D01*
X004659Y007244D02*
X004179Y007244D01*
X007179Y007244D02*
X007659Y007244D01*
X007659Y006244D02*
X007179Y006244D01*
X007179Y005244D02*
X007659Y005244D01*
X007659Y004244D02*
X007179Y004244D01*
D11*
X002966Y005425D03*
X002966Y008425D03*
D12*
X002185Y009287D03*
X009665Y009287D03*
D13*
X008865Y009287D03*
X001385Y009287D03*
D14*
X003647Y010075D03*
X004647Y010075D03*
X006010Y010075D03*
X007010Y010075D03*
X006797Y008500D03*
X007797Y008500D03*
X009265Y006744D03*
X009265Y004744D03*
X005435Y008500D03*
X004435Y008500D03*
X003376Y004169D03*
X001376Y004169D03*
D15*
X003360Y001807D03*
X003360Y002594D03*
X007691Y002594D03*
X007691Y001807D03*
D16*
X005525Y007319D03*
X004935Y009287D03*
M02*
