%
M48
M72
T01C0.0236
T02C0.0315
T03C0.0320
T04C0.0354
%
T01
X5525Y7319
X4935Y9287
T02
X3360Y1807
X3360Y2594
X7691Y2594
X7691Y1807
T03
X7419Y4244
X7419Y5244
X7419Y6244
X7419Y7244
X7797Y8500
X6797Y8500
X5435Y8500
X4435Y8500
X4419Y7244
X4419Y6244
X4419Y5244
X4419Y4244
X3376Y4169
X1376Y4169
X1385Y9287
X2185Y9287
X3647Y10075
X4647Y10075
X6010Y10075
X7010Y10075
X8865Y9287
X9665Y9287
X9265Y6744
X9265Y4744
T04
X2966Y5425
X2966Y8425
M30
