G75*
G70*
%OFA0B0*%
%FSLAX24Y24*%
%IPPOS*%
%LPD*%
%AMOC8*
5,1,8,0,0,1.08239X$1,22.5*
%
%ADD10C,0.0480*%
%ADD11C,0.0531*%
%ADD12OC8,0.0500*%
%ADD13C,0.0500*%
%ADD14OC8,0.0480*%
%ADD15C,0.0560*%
%ADD16C,0.0160*%
%ADD17C,0.0100*%
%ADD18C,0.0376*%
D10*
X004179Y004244D02*
X004659Y004244D01*
X004659Y005244D02*
X004179Y005244D01*
X004179Y006244D02*
X004659Y006244D01*
X004659Y007244D02*
X004179Y007244D01*
X007179Y007244D02*
X007659Y007244D01*
X007659Y006244D02*
X007179Y006244D01*
X007179Y005244D02*
X007659Y005244D01*
X007659Y004244D02*
X007179Y004244D01*
D11*
X002966Y005425D03*
X002966Y008425D03*
D12*
X002185Y009287D03*
X009665Y009287D03*
D13*
X008865Y009287D03*
X001385Y009287D03*
D14*
X003647Y010075D03*
X004647Y010075D03*
X006010Y010075D03*
X007010Y010075D03*
X006797Y008500D03*
X007797Y008500D03*
X009265Y006744D03*
X009265Y004744D03*
X005435Y008500D03*
X004435Y008500D03*
X003376Y004169D03*
X001376Y004169D03*
D15*
X003360Y002594D03*
X003360Y001807D03*
X007691Y001807D03*
X007691Y002594D03*
D16*
X000834Y000856D02*
X000834Y010396D01*
X003431Y010396D01*
X003267Y010232D01*
X003267Y009917D01*
X003490Y009695D01*
X003805Y009695D01*
X004027Y009917D01*
X004027Y010232D01*
X003864Y010396D01*
X004431Y010396D01*
X004267Y010232D01*
X004267Y009917D01*
X004490Y009695D01*
X004805Y009695D01*
X004965Y009855D01*
X005237Y009855D01*
X005896Y009196D01*
X006025Y009067D01*
X008534Y009067D01*
X008535Y009066D01*
X008645Y008956D01*
X008788Y008897D01*
X008943Y008897D01*
X009086Y008956D01*
X009196Y009066D01*
X009235Y009161D01*
X009235Y009109D01*
X009487Y008857D01*
X009665Y008857D01*
X009665Y009287D01*
X009665Y009287D01*
X009665Y009717D01*
X009487Y009717D01*
X009235Y009465D01*
X009235Y009413D01*
X009196Y009508D01*
X009086Y009618D01*
X008943Y009677D01*
X008788Y009677D01*
X008645Y009618D01*
X008535Y009508D01*
X008534Y009507D01*
X006207Y009507D01*
X006020Y009695D01*
X006167Y009695D01*
X006390Y009917D01*
X006390Y010232D01*
X006226Y010396D01*
X006793Y010396D01*
X006630Y010232D01*
X006630Y009917D01*
X006852Y009695D01*
X007167Y009695D01*
X007390Y009917D01*
X007390Y010232D01*
X007226Y010396D01*
X010374Y010396D01*
X010374Y000856D01*
X000834Y000856D01*
X000834Y000943D02*
X010374Y000943D01*
X010374Y001101D02*
X000834Y001101D01*
X000834Y001260D02*
X010374Y001260D01*
X010374Y001418D02*
X007850Y001418D01*
X007774Y001387D02*
X007929Y001451D01*
X008047Y001569D01*
X008111Y001723D01*
X008111Y001890D01*
X008047Y002045D01*
X007929Y002163D01*
X007889Y002179D01*
X007932Y002201D01*
X007990Y002243D01*
X008042Y002295D01*
X008084Y002353D01*
X008117Y002418D01*
X008139Y002486D01*
X008151Y002558D01*
X008151Y002594D01*
X007691Y002594D01*
X007691Y002594D01*
X008151Y002594D01*
X008151Y002630D01*
X008139Y002702D01*
X008117Y002771D01*
X008084Y002835D01*
X008042Y002894D01*
X007990Y002945D01*
X007932Y002988D01*
X007867Y003020D01*
X007798Y003043D01*
X007727Y003054D01*
X007691Y003054D01*
X007691Y002594D01*
X006041Y004244D01*
X005722Y004244D01*
X005722Y005744D01*
X005222Y006244D01*
X004419Y006244D01*
X004419Y006664D01*
X004146Y006664D01*
X004081Y006653D01*
X004018Y006633D01*
X003959Y006603D01*
X003905Y006564D01*
X003859Y006517D01*
X003820Y006464D01*
X003790Y006405D01*
X003769Y006342D01*
X003759Y006277D01*
X003759Y006244D01*
X004419Y006244D01*
X004419Y006244D01*
X004419Y006664D01*
X004692Y006664D01*
X004757Y006653D01*
X004820Y006633D01*
X004879Y006603D01*
X004933Y006564D01*
X004979Y006517D01*
X005018Y006464D01*
X005048Y006405D01*
X005069Y006342D01*
X005079Y006277D01*
X005079Y006244D01*
X004419Y006244D01*
X004419Y006244D01*
X004419Y006244D01*
X004041Y006244D01*
X002573Y007712D01*
X002573Y008106D01*
X002179Y008500D01*
X002185Y008506D01*
X002185Y009287D01*
X002185Y009287D01*
X002185Y008857D01*
X002007Y008857D01*
X001755Y009109D01*
X001755Y009161D01*
X001716Y009066D01*
X001623Y008973D01*
X002399Y008197D01*
X002399Y005835D01*
X002589Y005645D01*
X002618Y005645D01*
X002622Y005655D01*
X002736Y005769D01*
X002886Y005831D01*
X003047Y005831D01*
X003196Y005769D01*
X003310Y005655D01*
X003372Y005506D01*
X003372Y005344D01*
X003310Y005195D01*
X003196Y005081D01*
X003186Y005077D01*
X003186Y004517D01*
X003218Y004549D01*
X003533Y004549D01*
X003756Y004326D01*
X003756Y004012D01*
X003533Y003789D01*
X003264Y003789D01*
X003451Y003602D01*
X005813Y003602D01*
X007352Y002062D01*
X007453Y002163D01*
X007492Y002179D01*
X007450Y002201D01*
X007391Y002243D01*
X007340Y002295D01*
X007297Y002353D01*
X007264Y002418D01*
X007242Y002486D01*
X007231Y002558D01*
X007231Y002594D01*
X007691Y002594D01*
X007691Y002594D01*
X007691Y002594D01*
X007691Y003054D01*
X007654Y003054D01*
X007583Y003043D01*
X007514Y003020D01*
X007450Y002988D01*
X007391Y002945D01*
X007340Y002894D01*
X007297Y002835D01*
X007264Y002771D01*
X007242Y002702D01*
X007231Y002630D01*
X007231Y002594D01*
X007691Y002594D01*
X007691Y002686D02*
X007691Y002686D01*
X007691Y002845D02*
X007691Y002845D01*
X007691Y003003D02*
X007691Y003003D01*
X007901Y003003D02*
X010374Y003003D01*
X010374Y002845D02*
X008077Y002845D01*
X008142Y002686D02*
X010374Y002686D01*
X010374Y002528D02*
X008146Y002528D01*
X008092Y002369D02*
X010374Y002369D01*
X010374Y002211D02*
X007945Y002211D01*
X008039Y002052D02*
X010374Y002052D01*
X010374Y001894D02*
X008109Y001894D01*
X008111Y001735D02*
X010374Y001735D01*
X010374Y001577D02*
X008050Y001577D01*
X007774Y001387D02*
X007607Y001387D01*
X007453Y001451D01*
X007335Y001569D01*
X007327Y001587D01*
X007206Y001587D01*
X007077Y001716D01*
X005631Y003162D01*
X003269Y003162D01*
X000834Y003162D01*
X000834Y003320D02*
X003110Y003320D01*
X003140Y003290D02*
X003269Y003162D01*
X003140Y003290D02*
X002746Y003684D01*
X002746Y005077D01*
X002736Y005081D01*
X002622Y005195D01*
X002618Y005205D01*
X002407Y005205D01*
X002088Y005524D01*
X001959Y005653D01*
X001959Y008015D01*
X001300Y008673D01*
X001171Y008802D01*
X001171Y008953D01*
X001164Y008956D01*
X001055Y009066D01*
X000995Y009210D01*
X000995Y009365D01*
X001055Y009508D01*
X001164Y009618D01*
X001171Y009621D01*
X001171Y009772D01*
X001565Y010166D01*
X001694Y010295D01*
X002664Y010295D01*
X003451Y009507D01*
X004691Y009507D01*
X004749Y009565D01*
X004869Y009615D01*
X005000Y009615D01*
X005121Y009565D01*
X005213Y009473D01*
X005263Y009352D01*
X005263Y009222D01*
X005213Y009101D01*
X005121Y009009D01*
X005000Y008959D01*
X004869Y008959D01*
X004749Y009009D01*
X004691Y009067D01*
X003269Y009067D01*
X003140Y009196D01*
X002481Y009855D01*
X001876Y009855D01*
X001623Y009601D01*
X001716Y009508D01*
X001755Y009413D01*
X001755Y009465D01*
X002007Y009717D01*
X002185Y009717D01*
X002185Y009287D01*
X002185Y008857D01*
X002363Y008857D01*
X002615Y009109D01*
X002615Y009287D01*
X002185Y009287D01*
X002185Y009287D01*
X002185Y009287D01*
X002185Y009717D01*
X002363Y009717D01*
X002615Y009465D01*
X002615Y009287D01*
X002185Y009287D01*
X002185Y009343D02*
X002185Y009343D01*
X002185Y009502D02*
X002185Y009502D01*
X002185Y009660D02*
X002185Y009660D01*
X002420Y009660D02*
X002676Y009660D01*
X002579Y009502D02*
X002834Y009502D01*
X002993Y009343D02*
X002615Y009343D01*
X002615Y009185D02*
X003151Y009185D01*
X003360Y009287D02*
X004935Y009287D01*
X005184Y009502D02*
X005590Y009502D01*
X005432Y009660D02*
X003298Y009660D01*
X003366Y009819D02*
X003139Y009819D01*
X003267Y009977D02*
X002981Y009977D01*
X002822Y010136D02*
X003267Y010136D01*
X003330Y010294D02*
X002664Y010294D01*
X002573Y010075D02*
X003360Y009287D01*
X003196Y008769D02*
X003047Y008831D01*
X002886Y008831D01*
X002736Y008769D01*
X002622Y008655D01*
X002560Y008506D01*
X002560Y008344D01*
X002622Y008195D01*
X002736Y008081D01*
X002886Y008019D01*
X003047Y008019D01*
X003057Y008023D01*
X003799Y007281D01*
X003799Y007168D01*
X003857Y007029D01*
X003964Y006922D01*
X004103Y006864D01*
X004615Y006864D01*
X004797Y006751D01*
X004844Y006705D01*
X004872Y006705D01*
X004897Y006690D01*
X004960Y006705D01*
X006418Y006705D01*
X006600Y006524D01*
X006922Y006524D01*
X006857Y006459D01*
X006799Y006319D01*
X006799Y006168D01*
X006857Y006029D01*
X006964Y005922D01*
X007103Y005864D01*
X007735Y005864D01*
X007874Y005922D01*
X007976Y006024D01*
X008652Y006024D01*
X008652Y005046D01*
X008885Y004813D01*
X008885Y004586D01*
X009108Y004364D01*
X009423Y004364D01*
X009645Y004586D01*
X009645Y004813D01*
X010273Y005440D01*
X010273Y007016D01*
X010144Y007145D01*
X009750Y007539D01*
X009357Y007539D01*
X008963Y007932D01*
X005056Y007932D01*
X004803Y008330D01*
X004815Y008342D01*
X004815Y008657D01*
X004592Y008880D01*
X004277Y008880D01*
X004055Y008657D01*
X004055Y008342D01*
X004277Y008120D01*
X004415Y008120D01*
X004715Y007648D01*
X004715Y007624D01*
X004103Y007624D01*
X004086Y007616D01*
X003368Y008334D01*
X003372Y008344D01*
X003372Y008506D01*
X003310Y008655D01*
X003196Y008769D01*
X003256Y008709D02*
X004107Y008709D01*
X004265Y008868D02*
X002374Y008868D01*
X002185Y008868D02*
X002185Y008868D01*
X002185Y009026D02*
X002185Y009026D01*
X002185Y009185D02*
X002185Y009185D01*
X002532Y009026D02*
X004732Y009026D01*
X004604Y008868D02*
X005265Y008868D01*
X005277Y008880D02*
X005055Y008657D01*
X005055Y008342D01*
X005277Y008120D01*
X005592Y008120D01*
X005815Y008342D01*
X005815Y008657D01*
X005592Y008880D01*
X005277Y008880D01*
X005107Y008709D02*
X004763Y008709D01*
X004815Y008551D02*
X005055Y008551D01*
X005055Y008392D02*
X004815Y008392D01*
X004864Y008234D02*
X005163Y008234D01*
X004965Y008075D02*
X010374Y008075D01*
X010374Y007917D02*
X008978Y007917D01*
X009137Y007758D02*
X010374Y007758D01*
X010374Y007600D02*
X009295Y007600D01*
X009265Y007319D02*
X009659Y007319D01*
X010053Y006925D01*
X010053Y005531D01*
X009265Y004744D01*
X008872Y005138D01*
X008872Y006138D01*
X008765Y006244D01*
X007419Y006244D01*
X007916Y006524D02*
X008948Y006524D01*
X009108Y006364D01*
X009423Y006364D01*
X009645Y006586D01*
X009645Y006901D01*
X009448Y007099D01*
X009568Y007099D01*
X009833Y006834D01*
X009833Y005622D01*
X009334Y005124D01*
X009197Y005124D01*
X009092Y005229D01*
X009092Y006229D01*
X008963Y006358D01*
X008857Y006464D01*
X007976Y006464D01*
X007916Y006524D01*
X007950Y006490D02*
X008982Y006490D01*
X008989Y006332D02*
X009833Y006332D01*
X009833Y006490D02*
X009549Y006490D01*
X009645Y006649D02*
X009833Y006649D01*
X009833Y006807D02*
X009645Y006807D01*
X009701Y006966D02*
X009581Y006966D01*
X009265Y006744D02*
X006691Y006744D01*
X006510Y006925D01*
X004935Y006925D01*
X004419Y007244D01*
X004222Y007244D01*
X004147Y007319D01*
X004073Y007319D01*
X002966Y008425D01*
X002677Y008709D02*
X001887Y008709D01*
X001996Y008868D02*
X001728Y008868D01*
X001676Y009026D02*
X001838Y009026D01*
X001391Y008893D02*
X001391Y009281D01*
X001385Y009287D01*
X001391Y009293D01*
X001391Y009681D01*
X001785Y010075D01*
X002573Y010075D01*
X002517Y009819D02*
X001840Y009819D01*
X001950Y009660D02*
X001682Y009660D01*
X001718Y009502D02*
X001792Y009502D01*
X001377Y009977D02*
X000834Y009977D01*
X000834Y009819D02*
X001218Y009819D01*
X001171Y009660D02*
X000834Y009660D01*
X000834Y009502D02*
X001052Y009502D01*
X000995Y009343D02*
X000834Y009343D01*
X000834Y009185D02*
X001005Y009185D01*
X001094Y009026D02*
X000834Y009026D01*
X000834Y008868D02*
X001171Y008868D01*
X001265Y008709D02*
X000834Y008709D01*
X000834Y008551D02*
X001423Y008551D01*
X001582Y008392D02*
X000834Y008392D01*
X000834Y008234D02*
X001740Y008234D01*
X001899Y008075D02*
X000834Y008075D01*
X000834Y007917D02*
X001959Y007917D01*
X001959Y007758D02*
X000834Y007758D01*
X000834Y007600D02*
X001959Y007600D01*
X001959Y007441D02*
X000834Y007441D01*
X000834Y007283D02*
X001959Y007283D01*
X001959Y007124D02*
X000834Y007124D01*
X000834Y006966D02*
X001959Y006966D01*
X001959Y006807D02*
X000834Y006807D01*
X000834Y006649D02*
X001959Y006649D01*
X001959Y006490D02*
X000834Y006490D01*
X000834Y006332D02*
X001959Y006332D01*
X001959Y006173D02*
X000834Y006173D01*
X000834Y006015D02*
X001959Y006015D01*
X001959Y005856D02*
X000834Y005856D01*
X000834Y005698D02*
X001959Y005698D01*
X002072Y005539D02*
X000834Y005539D01*
X000834Y005381D02*
X002231Y005381D01*
X002389Y005222D02*
X000834Y005222D01*
X000834Y005064D02*
X002746Y005064D01*
X002746Y004905D02*
X000834Y004905D01*
X000834Y004747D02*
X002746Y004747D01*
X002746Y004588D02*
X001550Y004588D01*
X001550Y004589D02*
X001376Y004589D01*
X001376Y004169D01*
X001796Y004169D01*
X001796Y004343D01*
X001550Y004589D01*
X001709Y004430D02*
X002746Y004430D01*
X002746Y004271D02*
X001796Y004271D01*
X001796Y004169D02*
X001376Y004169D01*
X001376Y004169D01*
X001376Y003749D01*
X001550Y003749D01*
X001796Y003995D01*
X001796Y004169D01*
X001796Y004113D02*
X002746Y004113D01*
X002746Y003954D02*
X001755Y003954D01*
X001596Y003796D02*
X002746Y003796D01*
X002793Y003637D02*
X000834Y003637D01*
X000834Y003796D02*
X001155Y003796D01*
X001202Y003749D02*
X001376Y003749D01*
X001376Y004169D01*
X001376Y004169D01*
X001376Y004169D01*
X001376Y004589D01*
X001202Y004589D01*
X000956Y004343D01*
X000956Y004169D01*
X000956Y003995D01*
X001202Y003749D01*
X001376Y003796D02*
X001376Y003796D01*
X001376Y003954D02*
X001376Y003954D01*
X001376Y004113D02*
X001376Y004113D01*
X001376Y004169D02*
X000956Y004169D01*
X001376Y004169D01*
X001376Y004169D01*
X001376Y004271D02*
X001376Y004271D01*
X001376Y004430D02*
X001376Y004430D01*
X001376Y004588D02*
X001376Y004588D01*
X001201Y004588D02*
X000834Y004588D01*
X000834Y004430D02*
X001042Y004430D01*
X000956Y004271D02*
X000834Y004271D01*
X000834Y004113D02*
X000956Y004113D01*
X000997Y003954D02*
X000834Y003954D01*
X000834Y003479D02*
X002952Y003479D01*
X002966Y003775D02*
X003360Y003382D01*
X005722Y003382D01*
X007297Y001807D01*
X007691Y001807D01*
X007331Y001577D02*
X003759Y001577D01*
X003753Y001566D02*
X003786Y001630D01*
X003809Y001699D01*
X003820Y001771D01*
X003820Y001807D01*
X003820Y001843D01*
X003809Y001915D01*
X003786Y001983D01*
X003753Y002048D01*
X003711Y002106D01*
X003660Y002158D01*
X003601Y002200D01*
X003559Y002222D01*
X003598Y002238D01*
X003716Y002356D01*
X003780Y002511D01*
X003780Y002678D01*
X003716Y002832D01*
X003598Y002950D01*
X003443Y003014D01*
X003276Y003014D01*
X003122Y002950D01*
X003004Y002832D01*
X002940Y002678D01*
X002940Y002511D01*
X003004Y002356D01*
X003122Y002238D01*
X003161Y002222D01*
X003119Y002200D01*
X003060Y002158D01*
X003009Y002106D01*
X002967Y002048D01*
X002934Y001983D01*
X002911Y001915D01*
X002900Y001843D01*
X002900Y001807D01*
X003360Y001807D01*
X003820Y001807D01*
X003360Y001807D01*
X003360Y001807D01*
X003360Y001807D01*
X002900Y001807D01*
X002900Y001771D01*
X002911Y001699D01*
X002934Y001630D01*
X002967Y001566D01*
X003009Y001507D01*
X003060Y001456D01*
X003119Y001413D01*
X003183Y001380D01*
X003252Y001358D01*
X003324Y001347D01*
X003360Y001347D01*
X003396Y001347D01*
X003468Y001358D01*
X003537Y001380D01*
X003601Y001413D01*
X003660Y001456D01*
X003711Y001507D01*
X003753Y001566D01*
X003608Y001418D02*
X007531Y001418D01*
X007057Y001735D02*
X003814Y001735D01*
X003812Y001894D02*
X006899Y001894D01*
X006740Y002052D02*
X003750Y002052D01*
X003580Y002211D02*
X006582Y002211D01*
X006423Y002369D02*
X003721Y002369D01*
X003780Y002528D02*
X006265Y002528D01*
X006106Y002686D02*
X003776Y002686D01*
X003703Y002845D02*
X005948Y002845D01*
X005789Y003003D02*
X003470Y003003D01*
X003250Y003003D02*
X000834Y003003D01*
X000834Y002845D02*
X003016Y002845D01*
X002943Y002686D02*
X000834Y002686D01*
X000834Y002528D02*
X002940Y002528D01*
X002999Y002369D02*
X000834Y002369D01*
X000834Y002211D02*
X003139Y002211D01*
X002970Y002052D02*
X000834Y002052D01*
X000834Y001894D02*
X002908Y001894D01*
X002906Y001735D02*
X000834Y001735D01*
X000834Y001577D02*
X002961Y001577D01*
X003112Y001418D02*
X000834Y001418D01*
X003360Y001418D02*
X003360Y001418D01*
X003360Y001347D02*
X003360Y001807D01*
X003360Y001807D01*
X003360Y001347D01*
X003360Y001577D02*
X003360Y001577D01*
X003360Y001735D02*
X003360Y001735D01*
X003415Y003637D02*
X010374Y003637D01*
X010374Y003796D02*
X003540Y003796D01*
X003698Y003954D02*
X003875Y003954D01*
X003859Y003970D02*
X003905Y003923D01*
X003959Y003885D01*
X004018Y003855D01*
X004081Y003834D01*
X004146Y003824D01*
X004419Y003824D01*
X004692Y003824D01*
X004757Y003834D01*
X004820Y003855D01*
X004879Y003885D01*
X004933Y003923D01*
X004979Y003970D01*
X005018Y004024D01*
X005048Y004083D01*
X005069Y004145D01*
X005079Y004211D01*
X005079Y004244D01*
X005079Y004277D01*
X005069Y004342D01*
X005048Y004405D01*
X005018Y004464D01*
X004979Y004517D01*
X004933Y004564D01*
X004879Y004603D01*
X004820Y004633D01*
X004757Y004653D01*
X004692Y004664D01*
X004419Y004664D01*
X004146Y004664D01*
X004081Y004653D01*
X004018Y004633D01*
X003959Y004603D01*
X003905Y004564D01*
X003859Y004517D01*
X003820Y004464D01*
X003790Y004405D01*
X003769Y004342D01*
X003759Y004277D01*
X003759Y004244D01*
X004419Y004244D01*
X004419Y004664D01*
X004419Y004244D01*
X004419Y004244D01*
X004419Y004244D01*
X005079Y004244D01*
X004419Y004244D01*
X004419Y004244D01*
X005722Y004244D01*
X005079Y004271D02*
X006799Y004271D01*
X006799Y004319D02*
X006799Y004168D01*
X006857Y004029D01*
X006964Y003922D01*
X007103Y003864D01*
X007735Y003864D01*
X007874Y003922D01*
X007981Y004029D01*
X008039Y004168D01*
X008039Y004319D01*
X007981Y004459D01*
X007874Y004566D01*
X007735Y004624D01*
X007103Y004624D01*
X006964Y004566D01*
X006857Y004459D01*
X006799Y004319D01*
X006845Y004430D02*
X005036Y004430D01*
X004900Y004588D02*
X007017Y004588D01*
X007103Y004864D02*
X006964Y004922D01*
X006857Y005029D01*
X006799Y005168D01*
X006799Y005319D01*
X006857Y005459D01*
X006964Y005566D01*
X007103Y005624D01*
X007735Y005624D01*
X007874Y005566D01*
X007981Y005459D01*
X008039Y005319D01*
X008039Y005168D01*
X007981Y005029D01*
X007874Y004922D01*
X007735Y004864D01*
X007103Y004864D01*
X007003Y004905D02*
X004835Y004905D01*
X004874Y004922D02*
X004735Y004864D01*
X004103Y004864D01*
X003964Y004922D01*
X003857Y005029D01*
X003799Y005168D01*
X003799Y005319D01*
X003857Y005459D01*
X003964Y005566D01*
X004103Y005624D01*
X004735Y005624D01*
X004874Y005566D01*
X004981Y005459D01*
X005039Y005319D01*
X005039Y005168D01*
X004981Y005029D01*
X004874Y004922D01*
X004996Y005064D02*
X006842Y005064D01*
X006799Y005222D02*
X005039Y005222D01*
X005014Y005381D02*
X006824Y005381D01*
X006937Y005539D02*
X004901Y005539D01*
X004820Y005855D02*
X004757Y005834D01*
X004692Y005824D01*
X004419Y005824D01*
X004419Y006244D01*
X003759Y006244D01*
X003759Y006211D01*
X003769Y006145D01*
X003790Y006083D01*
X003820Y006024D01*
X003859Y005970D01*
X003905Y005923D01*
X003959Y005885D01*
X004018Y005855D01*
X004081Y005834D01*
X004146Y005824D01*
X004419Y005824D01*
X004419Y006244D01*
X005079Y006244D01*
X005079Y006211D01*
X005069Y006145D01*
X005048Y006083D01*
X005018Y006024D01*
X004979Y005970D01*
X004933Y005923D01*
X004879Y005885D01*
X004820Y005855D01*
X004823Y005856D02*
X008652Y005856D01*
X008652Y006015D02*
X007967Y006015D01*
X007901Y005539D02*
X008652Y005539D01*
X008652Y005698D02*
X003267Y005698D01*
X003358Y005539D02*
X003937Y005539D01*
X003824Y005381D02*
X003372Y005381D01*
X003321Y005222D02*
X003799Y005222D01*
X003842Y005064D02*
X003186Y005064D01*
X003186Y004905D02*
X004003Y004905D01*
X003938Y004588D02*
X003186Y004588D01*
X003186Y004747D02*
X008885Y004747D01*
X008793Y004905D02*
X007835Y004905D01*
X007996Y005064D02*
X008652Y005064D01*
X008652Y005222D02*
X008039Y005222D01*
X008014Y005381D02*
X008652Y005381D01*
X009092Y005381D02*
X009591Y005381D01*
X009750Y005539D02*
X009092Y005539D01*
X009092Y005698D02*
X009833Y005698D01*
X009833Y005856D02*
X009092Y005856D01*
X009092Y006015D02*
X009833Y006015D01*
X009833Y006173D02*
X009092Y006173D01*
X008948Y006964D02*
X007916Y006964D01*
X007981Y007029D01*
X008039Y007168D01*
X008039Y007319D01*
X007981Y007459D01*
X007948Y007492D01*
X008781Y007492D01*
X009045Y007227D01*
X009149Y007124D01*
X009108Y007124D01*
X008948Y006964D01*
X008950Y006966D02*
X007918Y006966D01*
X008021Y007124D02*
X009149Y007124D01*
X008990Y007283D02*
X008039Y007283D01*
X007989Y007441D02*
X008832Y007441D01*
X008872Y007712D02*
X009265Y007319D01*
X008872Y007712D02*
X004935Y007712D01*
X004435Y008500D01*
X004163Y008234D02*
X003469Y008234D01*
X003372Y008392D02*
X004055Y008392D01*
X004055Y008551D02*
X003353Y008551D01*
X003627Y008075D02*
X004444Y008075D01*
X004544Y007917D02*
X003786Y007917D01*
X003944Y007758D02*
X004645Y007758D01*
X004959Y007482D02*
X004976Y007478D01*
X004999Y007492D01*
X005242Y007492D01*
X005197Y007384D01*
X005197Y007253D01*
X005242Y007145D01*
X005029Y007145D01*
X005039Y007168D01*
X005039Y007319D01*
X004981Y007459D01*
X004959Y007482D01*
X004989Y007441D02*
X005221Y007441D01*
X005197Y007283D02*
X005039Y007283D01*
X005525Y007319D02*
X005600Y007244D01*
X007419Y007244D01*
X006922Y006964D02*
X006862Y007024D01*
X006722Y007024D01*
X006730Y007016D01*
X006782Y006964D01*
X006922Y006964D01*
X006920Y006966D02*
X006780Y006966D01*
X006475Y006649D02*
X004772Y006649D01*
X004707Y006807D02*
X002399Y006807D01*
X002399Y006649D02*
X004066Y006649D01*
X003839Y006490D02*
X002399Y006490D01*
X002399Y006332D02*
X003768Y006332D01*
X003765Y006173D02*
X002399Y006173D01*
X002399Y006015D02*
X003826Y006015D01*
X004015Y005856D02*
X002399Y005856D01*
X002179Y005744D02*
X002179Y008106D01*
X001391Y008893D01*
X002045Y008551D02*
X002579Y008551D01*
X002560Y008392D02*
X002204Y008392D01*
X002362Y008234D02*
X002606Y008234D01*
X002750Y008075D02*
X002399Y008075D01*
X002399Y007917D02*
X003163Y007917D01*
X003322Y007758D02*
X002399Y007758D01*
X002399Y007600D02*
X003480Y007600D01*
X003639Y007441D02*
X002399Y007441D01*
X002399Y007283D02*
X003797Y007283D01*
X003817Y007124D02*
X002399Y007124D01*
X002399Y006966D02*
X003920Y006966D01*
X004419Y007244D02*
X004541Y007319D01*
X004419Y006649D02*
X004419Y006649D01*
X004419Y006490D02*
X004419Y006490D01*
X004419Y006332D02*
X004419Y006332D01*
X004419Y006244D02*
X004419Y006244D01*
X004419Y006173D02*
X004419Y006173D01*
X004419Y006015D02*
X004419Y006015D01*
X004419Y005856D02*
X004419Y005856D01*
X005012Y006015D02*
X006871Y006015D01*
X006799Y006173D02*
X005073Y006173D01*
X005070Y006332D02*
X006804Y006332D01*
X006888Y006490D02*
X004999Y006490D01*
X005820Y007464D02*
X005808Y007492D01*
X006890Y007492D01*
X006862Y007464D01*
X005820Y007464D01*
X006623Y008080D02*
X006797Y008080D01*
X006971Y008080D01*
X007217Y008326D01*
X007217Y008500D01*
X007217Y008674D01*
X006971Y008920D01*
X006797Y008920D01*
X006623Y008920D01*
X006377Y008674D01*
X006377Y008500D01*
X006797Y008500D01*
X006797Y008500D01*
X006797Y008920D01*
X006797Y008500D01*
X007217Y008500D01*
X006797Y008500D01*
X006797Y008500D01*
X006797Y008500D01*
X006903Y008500D01*
X007297Y008893D01*
X008478Y008893D01*
X008872Y008500D01*
X009265Y008500D01*
X009659Y008893D01*
X009659Y009281D01*
X009665Y009287D01*
X009665Y009287D01*
X009665Y008857D01*
X009844Y008857D01*
X010095Y009109D01*
X010095Y009287D01*
X009665Y009287D01*
X009665Y009717D01*
X009844Y009717D01*
X010095Y009465D01*
X010095Y009287D01*
X009665Y009287D01*
X009665Y009287D01*
X009665Y009343D02*
X009665Y009343D01*
X009665Y009502D02*
X009665Y009502D01*
X009665Y009660D02*
X009665Y009660D01*
X009430Y009660D02*
X008984Y009660D01*
X008747Y009660D02*
X006054Y009660D01*
X006291Y009819D02*
X006728Y009819D01*
X006630Y009977D02*
X006390Y009977D01*
X006390Y010136D02*
X006630Y010136D01*
X006692Y010294D02*
X006327Y010294D01*
X005793Y010396D02*
X005630Y010232D01*
X005630Y010085D01*
X005420Y010295D01*
X005237Y010295D01*
X004965Y010295D01*
X004864Y010396D01*
X005793Y010396D01*
X005692Y010294D02*
X005420Y010294D01*
X005578Y010136D02*
X005630Y010136D01*
X005328Y010075D02*
X006116Y009287D01*
X008865Y009287D01*
X008575Y009026D02*
X005138Y009026D01*
X005247Y009185D02*
X005907Y009185D01*
X005749Y009343D02*
X005263Y009343D01*
X005273Y009819D02*
X004929Y009819D01*
X004647Y010075D02*
X005328Y010075D01*
X004366Y009819D02*
X003929Y009819D01*
X004027Y009977D02*
X004267Y009977D01*
X004267Y010136D02*
X004027Y010136D01*
X003965Y010294D02*
X004330Y010294D01*
X005604Y008868D02*
X006571Y008868D01*
X006412Y008709D02*
X005763Y008709D01*
X005815Y008551D02*
X006377Y008551D01*
X006377Y008500D02*
X006377Y008326D01*
X006623Y008080D01*
X006797Y008080D02*
X006797Y008500D01*
X006377Y008500D01*
X006377Y008392D02*
X005815Y008392D01*
X005706Y008234D02*
X006469Y008234D01*
X006797Y008234D02*
X006797Y008234D01*
X006797Y008392D02*
X006797Y008392D01*
X006797Y008500D02*
X006797Y008080D01*
X007125Y008234D02*
X007526Y008234D01*
X007417Y008342D02*
X007640Y008120D01*
X007954Y008120D01*
X008177Y008342D01*
X008177Y008657D01*
X007954Y008880D01*
X007640Y008880D01*
X007417Y008657D01*
X007417Y008342D01*
X007417Y008392D02*
X007217Y008392D01*
X007217Y008551D02*
X007417Y008551D01*
X007469Y008709D02*
X007181Y008709D01*
X007023Y008868D02*
X007628Y008868D01*
X007966Y008868D02*
X009477Y008868D01*
X009665Y008868D02*
X009665Y008868D01*
X009665Y009026D02*
X009665Y009026D01*
X009665Y009185D02*
X009665Y009185D01*
X009318Y009026D02*
X009156Y009026D01*
X009199Y009502D02*
X009272Y009502D01*
X009900Y009660D02*
X010374Y009660D01*
X010374Y009502D02*
X010059Y009502D01*
X010095Y009343D02*
X010374Y009343D01*
X010374Y009185D02*
X010095Y009185D01*
X010013Y009026D02*
X010374Y009026D01*
X010374Y008868D02*
X009854Y008868D01*
X010374Y008709D02*
X008125Y008709D01*
X008177Y008551D02*
X010374Y008551D01*
X010374Y008392D02*
X008177Y008392D01*
X008068Y008234D02*
X010374Y008234D01*
X010374Y007441D02*
X009848Y007441D01*
X010006Y007283D02*
X010374Y007283D01*
X010374Y007124D02*
X010165Y007124D01*
X010273Y006966D02*
X010374Y006966D01*
X010374Y006807D02*
X010273Y006807D01*
X010273Y006649D02*
X010374Y006649D01*
X010374Y006490D02*
X010273Y006490D01*
X010273Y006332D02*
X010374Y006332D01*
X010374Y006173D02*
X010273Y006173D01*
X010273Y006015D02*
X010374Y006015D01*
X010374Y005856D02*
X010273Y005856D01*
X010273Y005698D02*
X010374Y005698D01*
X010374Y005539D02*
X010273Y005539D01*
X010213Y005381D02*
X010374Y005381D01*
X010374Y005222D02*
X010055Y005222D01*
X009896Y005064D02*
X010374Y005064D01*
X010374Y004905D02*
X009738Y004905D01*
X009645Y004747D02*
X010374Y004747D01*
X010374Y004588D02*
X009645Y004588D01*
X009489Y004430D02*
X010374Y004430D01*
X010374Y004271D02*
X008039Y004271D01*
X008016Y004113D02*
X010374Y004113D01*
X010374Y003954D02*
X007907Y003954D01*
X007993Y004430D02*
X009042Y004430D01*
X008885Y004588D02*
X007821Y004588D01*
X006931Y003954D02*
X004963Y003954D01*
X005058Y004113D02*
X006822Y004113D01*
X006095Y003320D02*
X010374Y003320D01*
X010374Y003162D02*
X006253Y003162D01*
X006412Y003003D02*
X007480Y003003D01*
X007304Y002845D02*
X006570Y002845D01*
X006729Y002686D02*
X007239Y002686D01*
X007235Y002528D02*
X006887Y002528D01*
X007046Y002369D02*
X007289Y002369D01*
X007204Y002211D02*
X007436Y002211D01*
X005936Y003479D02*
X010374Y003479D01*
X009433Y005222D02*
X009098Y005222D01*
X006797Y008500D02*
X006797Y008500D01*
X006797Y008551D02*
X006797Y008551D01*
X006797Y008709D02*
X006797Y008709D01*
X006797Y008868D02*
X006797Y008868D01*
X007291Y009819D02*
X010374Y009819D01*
X010374Y009977D02*
X007390Y009977D01*
X007390Y010136D02*
X010374Y010136D01*
X010374Y010294D02*
X007327Y010294D01*
X002498Y005425D02*
X002179Y005744D01*
X002536Y005698D02*
X002665Y005698D01*
X002498Y005425D02*
X002966Y005425D01*
X002966Y003775D01*
X003756Y004113D02*
X003780Y004113D01*
X003790Y004083D02*
X003820Y004024D01*
X003859Y003970D01*
X003790Y004083D02*
X003769Y004145D01*
X003759Y004211D01*
X003759Y004244D01*
X004419Y004244D01*
X004419Y003824D01*
X004419Y004244D01*
X004419Y004244D01*
X004419Y004271D02*
X004419Y004271D01*
X004419Y004113D02*
X004419Y004113D01*
X004419Y003954D02*
X004419Y003954D01*
X004419Y004430D02*
X004419Y004430D01*
X004419Y004588D02*
X004419Y004588D01*
X003802Y004430D02*
X003652Y004430D01*
X003756Y004271D02*
X003759Y004271D01*
X001535Y010136D02*
X000834Y010136D01*
X000834Y010294D02*
X001694Y010294D01*
D17*
X009265Y008500D02*
X010250Y007515D01*
X010250Y004760D01*
X008084Y002594D01*
X007691Y002594D01*
X008084Y002200D01*
X008478Y002200D01*
X008478Y001413D01*
X008084Y001019D01*
X007297Y001019D01*
X006510Y001807D01*
X003360Y001807D01*
D18*
X005525Y007319D03*
X004935Y009287D03*
M02*
